<svg xmlns="http://www.w3.org/2000/svg" width="737.28pt" height="737.28pt" viewBox="0 0 737.28 737.28">
<path id="shape2" transform="matrix(2.92335111029751 0 0 2.92335111029751 473.558707421438 341.855691786118)" fill="none" stroke="#3a6d76" stroke-width="4.8" stroke-linecap="square" stroke-linejoin="bevel" d="M14.61 0C14.61 3.44697 3.57173 12.69 0 14.04"/><path id="shape3" transform="matrix(2.92335111029751 0 0 2.92335111029751 475.400418620926 377.199006709607)" fill="none" stroke="#3a6d76" stroke-width="4.8" stroke-linecap="square" stroke-linejoin="bevel" d="M24.09 0C24.09 9.40927 7.88077 16.59 0 16.59"/><path id="shape4" transform="matrix(2.92335111029751 0 0 2.92335111029751 60.4682228245749 300.987243264156)" fill="none" stroke="#3a6d76" stroke-width="4.7988" stroke-linecap="square" stroke-linejoin="bevel" d="M0.0371742 12.06C0.0371742 8.14541 -0.85201 0 6.06717 0"/><path id="shape01" transform="matrix(2.92335111029751 0 0 2.92335111029751 85.3063884411087 300.738864155891)" fill="none" stroke="#3a6d76" stroke-width="4.7988" stroke-linecap="square" stroke-linejoin="bevel" d="M0.0371741 12.06C0.0371741 10.1512 -0.174251 7.23634 0.411326 4.75049C1.02663 2.13843 2.52193 2.66651e-18 6.06717 0"/><path id="shape02" transform="matrix(2.92335111029751 0 0 2.92335111029751 491.106175329053 210.820916161743)" fill="none" stroke="#3a6d76" stroke-width="4.7988" stroke-linecap="square" stroke-linejoin="bevel" d="M1.77636e-15 0C2.87155 5.74309 2.46 10.5487 0.84 16.92"/><path id="shape03" transform="matrix(2.92335111029751 0 0 2.92335111029751 532.939329717413 233.009151088901)" fill="none" stroke="#3a6d76" stroke-width="4.7988" stroke-linecap="square" stroke-linejoin="bevel" d="M1.77636e-15 0C2.93155 5.74309 2.88 12.5887 1.08 18.96"/><path id="shape5" transform="matrix(2.92335111029751 0 0 2.92335111029751 627.385442845296 489.806491478267)" fill="none" stroke="#3a6d76" stroke-width="4.7988" stroke-linecap="square" stroke-linejoin="bevel" d="M3.54 0C2.34 1.29151 1.18806 3.24 0 4.32"/><path id="shape6" transform="matrix(2.92335111029751 0 0 2.92335111029751 645.451752706935 503.224673074533)" fill="none" stroke="#3a6d76" stroke-width="4.7988" stroke-linecap="square" stroke-linejoin="bevel" d="M4.86 0C3.6 1.99776 1.32619 3.71381 0 5.04"/><path id="shape7" transform="matrix(2.92335111029751 0 0 2.92335111029751 132.052830716486 203.902752891176)" fill="none" stroke="#34d399" stroke-width="4.8" stroke-linecap="square" stroke-linejoin="bevel" d="M0 102.06C0 99.4177 15.0723 91.1539 17.9459 83.3068C29.2418 52.4595 42.3657 0 83.16 0"/><path id="shape8" transform="matrix(2.92335111029751 0 0 2.92335111029751 209.05389896172 418.944460564655)" fill="none" stroke="#34d399" stroke-width="4.8" stroke-linecap="square" stroke-linejoin="bevel" d="M18.24 0C14.6845 0 3.20146 24.264 0 27.84"/><path id="shape9" transform="matrix(2.92335111029751 0 0 2.92335111029751 231.87726907776 270.053350607012)" fill="none" stroke="#34d399" stroke-width="4.8" stroke-linecap="square" stroke-linejoin="bevel" d="M23.9044 23.9317C21.9514 24.3363 -1.62727 31.5679 0.089291 34.3717C44.6435 107.143 96.6743 52.6818 49.0016 0.771656C44.4317 -4.20453 34.1362 16.4617 33.42 17.8417"/><path id="shape10" transform="matrix(2.92335111029751 0 0 2.92335111029751 364.546944518444 277.571200870673)" fill="none" stroke="#34d399" stroke-width="4.8" stroke-linecap="square" stroke-linejoin="bevel" d="M1.5 0C0.15 6.19535 0.33 11.0828 0 17.16"/><path id="shape11" transform="matrix(2.92335111029751 0 0 2.92335111029751 236.854968020649 366.856942540386)" fill="none" stroke="#34d399" stroke-width="4.8" stroke-linecap="square" stroke-linejoin="bevel" d="M0 2.39775C-9.4369e-16 -2.70142 17.3214 1.79775 19.2 2.57775"/><path id="shape12" transform="matrix(2.90554592737199 -0.322156139177589 0.322156139177589 2.90554592737199 388.481969216515 392.3749972876)" fill="none" stroke="#34d399" stroke-width="4.8" stroke-linecap="square" stroke-linejoin="bevel" d="M0 2.91967C0.716637 2.31022 1.94729 1.04292 2.76 0"/><path id="shape13" transform="matrix(2.92335111029751 0 0 2.92335111029751 19.5129982416251 204.754464090664)" fill="none" stroke="#34d399" stroke-width="4.8" stroke-linecap="square" stroke-linejoin="bevel" d="M114.541 0C95.9219 0 65.9753 20.9671 51.0169 29.167C39.7879 35.3224 18.0043 31.0662 6.45699 34.4725C4.37252 35.0874 2.79575 36.5615 1.48686 37.7336C0.626154 39.6088 0.144645 41.2798 0 42.7611C0.498824 63.639 61.7319 47.0962 75.7669 32.6706"/><path id="shape14" transform="matrix(2.92335111029751 0 0 2.92335111029751 419.885976567617 430.170128828198)" fill="none" stroke="#34d399" stroke-width="4.7988" stroke-linecap="square" stroke-linejoin="bevel" d="M1.87403 0C0.219325 11.2966 -3.4902 18.679 8.4 31.32"/><path id="shape15" transform="matrix(2.92335111029751 0 0 2.92335111029751 375.45401119687 110.245389484662)" fill="none" stroke="#34d399" stroke-width="4.8" stroke-linecap="square" stroke-linejoin="bevel" d="M61.729 104.998C61.729 77.2965 40.564 78.6278 29.809 57.1177C26.5369 50.5734 14.1996 -1.97921 8.08898 0.0576719C-11.2957 6.51922 10.249 54.0991 10.249 67.9177"/><path id="shape04" transform="matrix(2.34287060725357 1.74841043000354 -1.74841043000354 2.34287060725357 337.32763259775 419.046620652926)" fill="none" stroke="#34d399" stroke-width="4.8" stroke-linecap="square" stroke-linejoin="bevel" d="M0 2.91967C0.716637 2.31022 1.94729 1.04292 2.76 0"/><path id="shape0" transform="matrix(2.92335111029751 0 0 2.92335111029751 61.0500845440461 198.070667426127)" fill="none" stroke="#34d399" stroke-width="4.8" stroke-linecap="square" stroke-linejoin="bevel" d="M129.243 0C183.737 0 199.845 73.9984 161.883 111.96C143.694 130.149 105.061 126.899 84.7231 120.12C80.7814 118.806 36.9519 126.729 13.8508 122.317C3.94945 120.425 -1.75214 117.541 0.483135 108.6C1.5609 104.289 3.34991 103.676 6.08898 102.835C14.1609 100.356 27.7173 107.88 33.7231 107.88C54.3715 107.88 64.7777 95.4127 79.6831 87.96"/><path id="shape1" transform="matrix(2.92335111029751 0 0 2.92335111029751 571.783304727435 370.84071804471)" fill="none" stroke="#34d399" stroke-width="4.8" stroke-linecap="square" stroke-linejoin="bevel" d="M0 40.695C9.04031 40.695 24.1951 63.915 38.25 63.915C46.0005 66.435 53.217 61.9591 51.8033 59.078C50.43 56.2793 43.3104 54.3627 37.1882 49.7583C28.5667 43.3989 19.5184 34.9345 15.9026 28.6623C13.2645 26.6397 9.39098 1.32917 8.415 0"/>
</svg>
